inDegrees=yes
name=ik_S55_A09_T01
DataType=double
version=3
OpenSimVersion=4.3-2021-08-27-4bc7ad9
endheader
time	pelvis_tilt	pelvis_list	pelvis_rotation	pelvis_tx	pelvis_ty	pelvis_tz	hip_flexion_r	hip_adduction_r	hip_rotation_r	knee_angle_r	knee_angle_r_beta	ankle_angle_r	subtalar_angle_r	mtp_angle_r	hip_flexion_l	hip_adduction_l	hip_rotation_l	knee_angle_l	knee_angle_l_beta	ankle_angle_l	subtalar_angle_l	mtp_angle_l	lumbar_extension	lumbar_bending	lumbar_rotation	arm_flex_r	arm_add_r	arm_rot_r	elbow_flex_r	pro_sup_r	wrist_flex_r	wrist_dev_r	arm_flex_l	arm_add_l	arm_rot_l	elbow_flex_l	pro_sup_l	wrist_flex_l	wrist_dev_l
0	0	0	0	0	0.9399999999999999	0	0	0	0	0	0	0	0	0	0	0	0	0	0	0	0	0	0	0	0	0	0	0	0	89.99999999963507	0	0	0	0	0	0	89.99999999869995	0	0
0.02	-4.725790766280356	-0.1838594627316012	22.77164285001052	0	0.9399999999999999	0	4.437319959216945	-2.055884301857175	-1.491274776125125	6.740055723329476	0.1176361641399873	0	0	0	4.437319959216945	-2.055884301857175	-1.491274776125125	6.740055723329476	0.1176361641399873	0	0	0	-2.295915310715078	-2.006384769519318	1.317121460833865	21.41925480569729	-19.026812780931	-1.293260089673884	56.92850987670215	127.2255748973295	0	0	13.38426060101485	-19.29103158793943	-7.347715610955974	67.39341021400364	139.3165332939164	0	0
0.04	-4.239416968456016	0.241056578293722	22.24578816581032	0	0.9399999999999999	0	41.96043026280165	-13.28043081454776	-11.2601135116701	53.8328364038978	0.9395602409354806	0	0	0	41.96043026280165	-13.28043081454776	-11.2601135116701	53.8328364038978	0.9395602409354806	0	0	0	-2.915552173612842	-2.223332847233934	1.837139418110384	21.42873006301243	-19.02524446731573	-1.293578747202945	56.96105800281727	127.1897599572675	0	0	13.45886348202096	-19.24925526634607	-7.219429976183519	67.32629160885793	139.3502148718799	0	0
0.06	-4.243793986917993	0.2397238297598147	22.24495239701626	0	0.9399999999999999	0	41.963318622064	-13.27021906721424	-11.25754215756711	53.83358985619101	0.9395733911587538	0	0	0	41.963318622064	-13.27021906721424	-11.25754215756711	53.83358985619101	0.9395733911587538	0	0	0	-2.920827396357613	-2.220784788167255	1.84876920726091	21.41863305510196	-19.01019777292733	-1.336025576025796	56.96334207585667	127.2139626784869	0	1.347017302871753e-36	13.47790132757022	-19.23251258906836	-7.154516743666431	67.33137028165343	139.3378492005322	0	1.347017302871753e-36
0.08	-4.238380150496821	0.2526997754756166	22.24361623080962	0	0.9399999999999999	0	41.96213048574464	-13.2731968416711	-11.25844527118279	53.83327102392374	0.9395678264859283	0	0	0	41.96213048574464	-13.2731968416711	-11.25844527118279	53.83327102392374	0.9395678264859283	0	0	0	-2.910697742170018	-2.212602337875139	1.861465944909696	21.434533403188	-18.96751994305874	-1.418700453428053	56.93162862667441	127.2654131078328	0	0	13.44942345402545	-19.20141033033627	-7.15614801886636	67.31696972137037	139.360729460738	0	0
0.1	-4.247453811706579	0.2499890193999552	22.24062825162178	0	0.9399999999999999	0	41.968628971276	-13.25109821337328	-11.25276739897769	53.83497252496366	0.9395975232813011	0	0	0	41.968628971276	-13.25109821337328	-11.25276739897769	53.83497252496366	0.9395975232813011	0	0	0	-2.921510879565918	-2.205887124372276	1.86543388716296	21.44410890812152	-18.98398498764757	-1.422003853751832	56.95505600342344	127.2214034025279	0	0	13.4877955973121	-19.21421087347913	-7.146786986386559	67.33746690554597	139.2900098755539	0	0
0.12	-4.246276436478747	0.2607287936657967	22.23657971382547	0	0.9399999999999999	0	41.96619991515242	-13.25931063346947	-11.25490485025683	53.83434459621797	0.9395865638572209	0	0	0	41.96619991515242	-13.25931063346947	-11.25490485025683	53.83434459621797	0.9395865638572209	0	0	0	-2.915802806965499	-2.198337362200107	1.859488116615356	21.4584900691202	-18.96581374227623	-1.449642445692368	56.91944136201278	127.2783696046243	0	0	13.47742633728867	-19.20602070481282	-7.195296488106444	67.32023580122569	139.3538316892449	0	0
0.14	-4.249456204234943	0.2574932350199567	22.24662126291656	0	0.9399999999999999	0	41.96849047657543	-13.25321808019689	-11.25315039015406	53.83496980075525	0.9395974757348947	0	0	0	41.96849047657543	-13.25321808019689	-11.25315039015406	53.83496980075525	0.9395974757348947	0	0	0	-2.920450110262963	-2.197654495329778	1.85339262762464	21.46889915595676	-18.94717819257607	-1.480355396720604	56.91260247060146	127.2809253051437	0	0	13.46450499238052	-19.21618160142622	-7.243719845599614	67.31790489641385	139.3610028912571	0	0
